<svg width="80" height="79" viewBox="0 0 80 79" fill="none" xmlns="http://www.w3.org/2000/svg">
<g clip-path="url(#clip0_129_33)">
<path d="M14.1667 6.36752e-06H65.8333C67.6942 -0.00177002 69.5372 0.368147 71.2568 1.08859C72.9763 1.80903 74.5387 2.86585 75.8546 4.19856C77.1704 5.53128 78.2139 7.11373 78.9252 8.85534C79.6365 10.597 80.0018 12.4636 80 14.3483V64.6517C80.0018 66.5365 79.6365 68.403 78.9252 70.1447C78.2139 71.8863 77.1704 73.4687 75.8546 74.8014C74.5387 76.1342 72.9763 77.191 71.2568 77.9114C69.5372 78.6319 67.6942 79.0018 65.8333 79H14.1667C12.3058 79.0018 10.4628 78.6319 8.74325 77.9114C7.02368 77.191 5.46126 76.1342 4.14542 74.8014C2.82957 73.4687 1.78613 71.8863 1.07481 70.1447C0.363487 68.403 -0.00174761 66.5365 6.28692e-06 64.6517V14.3483C-0.00174761 12.4636 0.363487 10.597 1.07481 8.85534C1.78613 7.11373 2.82957 5.53128 4.14542 4.19856C5.46126 2.86585 7.02368 1.80903 8.74325 1.08859C10.4628 0.368147 12.3058 -0.00177002 14.1667 6.36752e-06Z" fill="#330000"/>
<path d="M38.7667 47.4H26.3667L23.8333 55.3338C23.805 55.4784 23.7244 55.607 23.6072 55.6945C23.49 55.7819 23.3448 55.8219 23.2 55.8064H16.9333C16.5667 55.8064 16.4667 55.6038 16.5667 55.1987L27.3 23.9026C27.4 23.565 27.5 23.1936 27.6333 22.7885C27.7675 22.0649 27.8344 21.3302 27.8333 20.594C27.8233 20.5095 27.8453 20.4242 27.8947 20.3553C27.9442 20.2865 28.0175 20.2391 28.1 20.2226H36.7333C37 20.2226 37.1333 20.3239 37.1667 20.4927L49.3333 55.2662C49.4333 55.6376 49.3333 55.8064 49 55.8064H42.0333C41.9155 55.8179 41.7975 55.787 41.6999 55.7191C41.6024 55.6511 41.5316 55.5506 41.5 55.435L38.7667 47.4ZM28.3 40.5466H36.7667C36.5667 39.8376 36.3 38.9936 36 38.1158C35.7 37.238 35.4 36.2252 35.1 35.2124C34.8 34.1996 34.4667 33.153 34.1333 32.1064C33.8 31.0598 33.5 30.0808 33.2333 29.1017C32.9667 28.1226 32.7333 27.2786 32.5 26.4684H32.4333C32.1338 27.9398 31.7554 29.3937 31.3 30.8235C30.8 32.444 30.3 34.132 29.7667 35.8201C29.3 37.5419 28.8 39.1286 28.3 40.5466ZM56.6 25.9957C56.0529 26.0079 55.5088 25.9096 54.9995 25.7068C54.4902 25.5039 54.0258 25.2005 53.6333 24.8141C52.8696 23.9684 52.4629 22.8536 52.5 21.7081C52.4803 21.15 52.577 20.5939 52.7838 20.0762C52.9905 19.5585 53.3027 19.0907 53.7 18.7034C54.5012 17.9364 55.5643 17.513 56.6667 17.5218C57.9667 17.5218 58.9667 17.9269 59.7 18.7034C60.4385 19.522 60.833 20.5998 60.8 21.7081C60.8203 22.2785 60.7276 22.8473 60.5272 23.3808C60.3268 23.9142 60.0229 24.4016 59.6333 24.8141C59.2406 25.2193 58.7665 25.5345 58.2433 25.7383C57.72 25.9421 57.1596 26.0299 56.6 25.9957ZM52.8667 55.3V29.3043C52.8667 28.9667 53 28.8316 53.3 28.8316H59.9C60.2 28.8316 60.3333 29.0004 60.3333 29.3043V55.3C60.3333 55.6714 60.2 55.8402 59.9 55.8402H53.3667C53.2966 55.846 53.2262 55.8358 53.1606 55.8102C53.095 55.7846 53.0359 55.7443 52.9879 55.6924C52.9398 55.6404 52.9039 55.5782 52.8829 55.5102C52.862 55.4423 52.8564 55.3704 52.8667 55.3Z" fill="#FF9A00"/>
</g>
<defs>
<clipPath id="clip0_129_33">
<rect width="80" height="79" fill="white"/>
</clipPath>
</defs>
</svg>
