<svg width="96" height="78" viewBox="0 0 96 78" fill="none" xmlns="http://www.w3.org/2000/svg">
<g clip-path="url(#clip0_129_26)">
<path d="M10.5902 10.1935C10.4091 4.89029 14.4615 0 19.9391 0H76.0678C81.5454 0 85.5979 4.89029 85.4167 10.1935C85.2427 15.2878 85.4687 21.8868 87.0975 27.2675C88.7316 32.6648 91.4871 36.0763 96 36.5147V41.4853C91.4871 41.9237 88.7316 45.3352 87.0975 50.7325C85.4687 56.1132 85.2427 62.7122 85.4167 67.8067C85.5979 73.1097 81.5454 78 76.0678 78H19.9391C14.4615 78 10.4091 73.1097 10.5904 67.8067C10.7642 62.7122 10.5382 56.1132 8.90925 50.7325C7.27537 45.3352 4.51312 41.9237 0 41.4853V36.5147C4.51294 36.0763 7.27537 32.6648 8.90925 27.2675C10.5382 21.8868 10.7642 15.2878 10.5902 10.1935Z" fill="url(#paint0_linear_129_26)"/>
<g filter="url(#filter0_d_129_26)">
<path d="M50.0818 59.7344C58.95 59.7344 64.2939 55.3072 64.2939 48.0048C64.2939 42.485 60.4809 38.4888 54.8192 37.8562V37.6262C58.9789 36.9362 62.2431 32.9976 62.2431 28.599C62.2431 22.3317 57.3902 18.2491 49.9952 18.2491H33.3564V59.7344H50.0818ZM39.8271 23.5103H48.4354C53.115 23.5103 55.7724 25.6377 55.7724 29.4901C55.7724 33.6014 52.6817 35.9012 47.0777 35.9012H39.8271V23.5103ZM39.8271 54.4734V40.8175H48.3774C54.5014 40.8175 57.6789 43.1174 57.6789 47.6024C57.6789 52.0872 54.5882 54.4734 48.753 54.4734H39.8271Z" fill="url(#paint1_linear_129_26)"/>
<path d="M50.0818 59.7344C58.95 59.7344 64.2939 55.3072 64.2939 48.0048C64.2939 42.485 60.4809 38.4888 54.8192 37.8562V37.6262C58.9789 36.9362 62.2431 32.9976 62.2431 28.599C62.2431 22.3317 57.3902 18.2491 49.9952 18.2491H33.3564V59.7344H50.0818ZM39.8271 23.5103H48.4354C53.115 23.5103 55.7724 25.6377 55.7724 29.4901C55.7724 33.6014 52.6817 35.9012 47.0777 35.9012H39.8271V23.5103ZM39.8271 54.4734V40.8175H48.3774C54.5014 40.8175 57.6789 43.1174 57.6789 47.6024C57.6789 52.0872 54.5882 54.4734 48.753 54.4734H39.8271Z" stroke="white"/>
</g>
</g>
<defs>
<filter id="filter0_d_129_26" x="16.8564" y="5.74913" width="63.9375" height="74.4853" filterUnits="userSpaceOnUse" color-interpolation-filters="sRGB">
<feFlood flood-opacity="0" result="BackgroundImageFix"/>
<feColorMatrix in="SourceAlpha" type="matrix" values="0 0 0 0 0 0 0 0 0 0 0 0 0 0 0 0 0 0 127 0" result="hardAlpha"/>
<feOffset dy="4"/>
<feGaussianBlur stdDeviation="8"/>
<feColorMatrix type="matrix" values="0 0 0 0 0 0 0 0 0 0 0 0 0 0 0 0 0 0 0.15 0"/>
<feBlend mode="normal" in2="BackgroundImageFix" result="effect1_dropShadow_129_26"/>
<feBlend mode="normal" in="SourceGraphic" in2="effect1_dropShadow_129_26" result="shape"/>
</filter>
<linearGradient id="paint0_linear_129_26" x1="14.2648" y1="2.06433" x2="99.4061" y2="68.3498" gradientUnits="userSpaceOnUse">
<stop stop-color="#9013FE"/>
<stop offset="1" stop-color="#6610F2"/>
</linearGradient>
<linearGradient id="paint1_linear_129_26" x1="36.2828" y1="20.9797" x2="55.5785" y2="52.9854" gradientUnits="userSpaceOnUse">
<stop stop-color="white"/>
<stop offset="1" stop-color="#F1E5FC"/>
</linearGradient>
<clipPath id="clip0_129_26">
<rect width="96" height="78" fill="white"/>
</clipPath>
</defs>
</svg>
