<svg width="78" height="78" viewBox="0 0 78 78" fill="none" xmlns="http://www.w3.org/2000/svg">
<g clip-path="url(#clip0_129_16)">
<path d="M0 0H78V78H0V0Z" fill="#F0DB4F"/>
<path d="M71.6162 59.3971C71.0453 55.8382 68.7245 52.8502 61.8514 50.0624C59.4639 48.965 56.8021 48.1792 56.0088 46.37C55.727 45.3171 55.6899 44.724 55.8679 44.0863C56.3795 42.0177 58.8485 41.3726 60.8059 41.9658C62.0664 42.3884 63.2601 43.3598 63.9793 44.9093C67.3455 42.7295 67.338 42.7443 69.6884 41.2467C68.8283 39.9121 68.3686 39.2966 67.8052 38.7257C65.781 36.4643 63.0228 35.3003 58.6112 35.3892C57.8475 35.4856 57.0765 35.5894 56.3128 35.6858C54.1107 36.2419 52.0124 37.3986 50.7816 38.9482C47.0892 43.1373 48.142 50.4701 52.6352 53.4879C57.0616 56.8096 63.5641 57.5659 64.3945 60.6725C65.2027 64.4761 61.5993 65.7068 58.0181 65.2695C55.3785 64.7208 53.9106 63.3788 52.3238 60.9394C49.4026 62.6299 49.4026 62.6299 46.3997 64.3575C47.1115 65.9145 47.8603 66.6189 49.0541 67.9683C54.7039 73.6997 68.8432 73.4179 71.379 64.743C71.4827 64.4464 72.1649 62.4593 71.6162 59.3971ZM42.4033 35.8489H35.1074C35.1074 42.1511 35.0779 48.4089 35.0779 54.7112C35.0779 58.7224 35.2855 62.4 34.633 63.527C33.5653 65.7438 30.7997 65.4696 29.5393 65.0395C28.2566 64.4092 27.6041 63.5121 26.8478 62.2443C26.6402 61.881 26.4845 61.5992 26.4325 61.577C24.453 62.7855 22.4806 64.0014 20.501 65.2101C21.4872 67.2342 22.9403 68.9914 24.8014 70.1332C27.5818 71.8014 31.3187 72.313 35.2261 71.4159C37.7693 70.6744 39.9639 69.1397 41.1131 66.8042C42.774 63.742 42.4181 60.0348 42.4033 55.9346C42.4403 49.2468 42.4033 42.5589 42.4033 35.8489Z" fill="#323330"/>
</g>
<defs>
<clipPath id="clip0_129_16">
<rect width="78" height="78" fill="white"/>
</clipPath>
</defs>
</svg>
