<svg width="107" height="80" viewBox="0 0 107 80" fill="none" xmlns="http://www.w3.org/2000/svg">
<g clip-path="url(#clip0_129_19)">
<path d="M92.0785 45.9583C88.3377 45.9794 85.0984 46.875 82.3817 48.2085C81.3785 46.2294 80.3754 44.5 80.2084 43.2085C80.0203 41.7085 79.7905 40.7917 80.0203 39.0002C80.25 37.2083 81.2949 34.6667 81.2949 34.4583C81.2738 34.2708 81.0648 33.3542 78.9125 33.3333C76.7602 33.3125 74.9 33.75 74.691 34.3125C74.482 34.875 74.0641 36.1667 73.7924 37.5C73.4162 39.4583 69.4873 46.3958 67.2512 50.0417C66.5197 48.625 65.8928 47.375 65.7672 46.3748C65.5793 44.875 65.3492 43.9581 65.5793 42.1667C65.8092 40.3748 66.8541 37.8333 66.8541 37.625C66.8332 37.4375 66.6242 36.5208 64.4719 36.5C62.3191 36.4792 60.4594 36.9167 60.2504 37.4792C60.0414 38.0417 59.8115 39.375 59.3518 40.6667C58.9127 41.9583 53.6881 53.5417 52.3297 56.5625C51.64 58.1042 51.0342 59.3333 50.5951 60.1667C50.1563 61 50.5742 60.2292 50.5324 60.3125C50.1563 61.0208 49.9473 61.4167 49.9473 61.4167V61.4377C49.6547 61.9585 49.3412 62.4583 49.1947 62.4583C49.0902 62.4583 48.8812 61.0625 49.2365 59.146C50.0098 55.125 51.8906 48.8544 51.8699 48.6252C51.8699 48.521 52.225 47.4167 50.6576 46.8544C49.132 46.2919 48.5889 47.2294 48.4633 47.2294C48.3379 47.2294 48.2334 47.5627 48.2334 47.5627C48.2334 47.5627 49.9262 40.5004 44.9941 40.5004C41.9012 40.5004 37.6379 43.8546 35.5271 46.9171C34.1896 47.6462 31.3475 49.1877 28.3381 50.8337C27.1887 51.4587 25.9975 52.1254 24.8689 52.7296L24.6393 52.4792C18.6623 46.125 7.60703 41.625 8.0668 33.0833C8.23399 29.9792 9.32071 21.7917 29.2998 11.875C45.6633 3.75 58.7666 5.97917 61.0443 10.9375C64.2836 18.0208 54.0434 31.1875 37.0322 33.0833C30.5537 33.8125 27.1471 31.3125 26.2904 30.375C25.3918 29.3958 25.2664 29.3542 24.932 29.5417C24.3887 29.8333 24.7231 30.7083 24.932 31.2292C25.4336 32.5417 27.5235 34.875 31.0762 36.0417C34.1898 37.0625 41.7971 37.625 50.9924 34.0833C61.2953 30.1042 69.3412 19.0625 66.9797 9.83333C64.5764 0.437499 48.9444 -2.64584 34.1692 2.58333C25.3707 5.70833 15.841 10.5833 8.98633 16.9792C0.83594 24.5625 -0.459763 31.1875 0.083596 33.9375C1.98556 43.75 15.5484 50.1458 20.982 54.875C20.7104 55.0206 20.4596 55.1665 20.2297 55.2917C17.5129 56.6248 7.16817 62.0208 4.57676 67.729C1.65098 74.1873 5.03653 78.8333 7.29356 79.4583C14.2736 81.3958 21.4209 77.9167 25.2871 72.1875C29.1322 66.4583 28.6727 59.0208 26.8963 55.625L26.8334 55.5L28.965 54.25C30.3445 53.4375 31.7029 52.6875 32.8939 52.0415C32.2254 53.854 31.7445 55.9998 31.4939 59.1248C31.2014 62.7917 32.7061 67.5415 34.6914 69.4165C35.5691 70.2287 36.6141 70.2498 37.2619 70.2498C39.5607 70.2498 40.6057 68.3537 41.7551 66.0831C43.1762 63.3123 44.4301 60.104 44.4301 60.104C44.4301 60.104 42.8627 68.7915 47.1469 68.7915C48.7143 68.7915 50.2816 66.7706 50.9922 65.729V65.7498C50.9922 65.7498 51.034 65.6873 51.1176 65.5415C51.2053 65.4122 51.2889 65.2803 51.3684 65.1458V65.1042C51.9953 64.0208 53.3955 61.5417 55.4854 57.4375C58.181 52.1458 60.7727 45.5208 60.7727 45.5208C60.7727 45.5208 61.0234 47.1458 61.7967 49.8125C62.2562 51.396 63.2594 53.125 64.0326 54.8125C63.4057 55.6875 63.0295 56.1877 63.0295 56.1877L63.0504 56.2085C62.549 56.8752 61.9846 57.5837 61.3996 58.2919C59.268 60.8335 56.7184 63.7296 56.384 64.5629C55.9869 65.5419 56.0705 66.271 56.8438 66.8546C57.408 67.2713 58.4111 67.3544 59.477 67.2713C61.3996 67.146 62.7371 66.6671 63.4059 66.3752C64.4508 66.0002 65.642 65.4377 66.7914 64.6044C68.8813 63.0629 70.1561 60.8754 70.0307 57.9587C69.968 56.3546 69.4455 54.7712 68.7977 53.2712C68.9858 53.0004 69.174 52.7294 69.3619 52.4379C72.6639 47.6252 75.2135 42.3337 75.2135 42.3337C75.2135 42.3337 75.4643 43.9587 76.2375 46.6254C76.6344 47.9796 77.4287 49.459 78.1393 50.9173C75.0463 53.4381 73.1027 56.3548 72.434 58.2715C71.201 61.8131 72.1623 63.4173 73.9805 63.7923C74.7953 63.959 75.9658 63.584 76.8434 63.209C77.9301 62.8548 79.2467 62.2504 80.459 61.3548C82.5488 59.8131 84.5551 57.6673 84.4506 54.7715C84.3879 53.4381 84.0326 52.1256 83.552 50.8756C86.1852 49.7923 89.5914 49.1673 93.9176 49.6881C103.217 50.7715 105.056 56.5631 104.701 58.9798C104.346 61.3967 102.403 62.7298 101.754 63.1465C101.107 63.5423 100.898 63.6883 100.96 63.9798C101.044 64.4175 101.337 64.3965 101.901 64.3133C102.674 64.1881 106.791 62.3342 106.958 57.876C107.209 52.146 101.755 45.896 92.0785 45.9583ZM20.3551 70.0625C17.283 73.4167 12.957 74.6875 11.118 73.6042C9.13262 72.4583 9.90565 67.5208 13.6885 63.9583C15.9873 61.7917 18.9758 59.7917 20.9402 58.5625C21.3791 58.2917 22.0479 57.896 22.842 57.4167C22.9674 57.3335 23.051 57.2917 23.051 57.2917C23.1973 57.2083 23.3645 57.1042 23.5316 57C24.9318 62.0833 23.5943 66.5417 20.3551 70.0625ZM42.8209 54.8333C41.7551 57.4375 39.4981 64.125 38.1397 63.75C36.9691 63.4375 36.2588 58.375 37.9096 53.375C38.7455 50.854 40.5219 47.8542 41.5668 46.6873C43.2598 44.8123 45.0986 44.1873 45.5586 44.9581C46.102 45.9583 43.4897 53.2083 42.8209 54.8333ZM61.3578 63.6667C60.8981 63.896 60.4801 64.0625 60.292 63.9377C60.1457 63.8544 60.4799 63.5419 60.4799 63.5419C60.4799 63.5419 62.7996 61.0627 63.7191 59.9169C64.2416 59.2504 64.8685 58.4796 65.5373 57.6044V57.8544C65.5375 60.8542 62.6535 62.8542 61.3578 63.6667ZM75.6521 60.4167C75.3178 60.1667 75.3598 59.3958 76.4881 56.9792C76.9272 56.0208 77.9301 54.4167 79.6646 52.8958C79.8736 53.5208 79.9992 54.1248 79.9781 54.6875C79.9574 58.4375 77.2824 59.8333 75.6521 60.4167Z" fill="#CF649A"/>
</g>
<defs>
<clipPath id="clip0_129_19">
<rect width="107" height="80" fill="white"/>
</clipPath>
</defs>
</svg>
