<svg width="100" height="60" viewBox="0 0 100 60" fill="none" xmlns="http://www.w3.org/2000/svg">
<g clip-path="url(#clip0_129_29)">
<path d="M50 0.0797882C36.6668 0.0797882 28.3332 6.72885 25 20.0266C30 13.3775 35.8332 10.8842 42.5 12.5465C46.3035 13.4948 49.0223 16.2472 52.0316 19.2934C56.934 24.2563 62.6074 30 75 30C88.3332 30 96.6668 23.3509 100 10.0532C95 16.7023 89.1668 19.1956 82.5 17.5332C78.6965 16.585 75.9777 13.8326 72.9684 10.7864C68.066 5.82346 62.3926 0.0797882 50 0.0797882ZM25 30C11.6668 30 3.3332 36.6491 0 49.9468C5 43.2977 10.8332 40.8044 17.5 42.4668C21.3035 43.415 24.0223 46.1674 27.0316 49.2136C31.934 54.1765 37.6074 59.9202 50 59.9202C63.3332 59.9202 71.6668 53.2711 75 39.9734C70 46.6225 64.1668 49.1158 57.5 47.4535C53.6965 46.5052 50.9777 43.7528 47.9684 40.7066C43.066 35.7437 37.3926 30 25 30Z" fill="url(#paint0_linear_129_29)"/>
</g>
<defs>
<linearGradient id="paint0_linear_129_29" x1="-711.168" y1="2941.36" x2="-416.618" y2="6255.4" gradientUnits="userSpaceOnUse">
<stop stop-color="#2298BD"/>
<stop offset="1" stop-color="#0ED7B5"/>
</linearGradient>
<clipPath id="clip0_129_29">
<rect width="100" height="60" fill="white"/>
</clipPath>
</defs>
</svg>
